<svg width="220" height="60" viewBox="0 0 220 60" xmlns="http://www.w3.org/2000/svg"><title>Page 1</title><g fill="none" fill-rule="evenodd"><rect fill-opacity=".5" fill="#000" width="220" height="60" rx="6"/><path d="M30.92 26.888l-4.71-1.397c-1.114-.313-3.72-1.046-4.682-1.848-.27-.217-1.157-1.058-1.157-2.767 0-2.3 1.264-3.521 2.02-4.047 1.131-.802 2.775-1.226 4.753-1.226 5.491 0 6.99 3 7.64 4.298.061.123.148.308.246.513.324.68.546 1.139.656 1.285.611.918 1.333 1.042 1.958 1.042 1.737 0 2.95-1.13 2.95-2.744 0-1.588-1.498-4.601-3.646-6.381-2.293-1.938-5.432-2.88-9.596-2.88-8 0-12.778 4.004-12.778 10.709 0 3.767 1.693 6.604 4.765 7.987.96.437 2.33.916 4.19 1.467l3.895 1.09c2.781.825 4.977 1.475 6.373 2.67a4.777 4.777 0 0 1 1.777 3.75 5.35 5.35 0 0 1-2.08 4.21c-1.885 1.426-4.7 1.426-5.625 1.426-1.687 0-4.165-.17-6.2-1.638-1.986-1.432-2.442-3.127-2.882-4.766l-.085-.314c-.176-.617-.504-1.764-2.419-1.764-1.146 0-3.312.584-3.312 2.795 0 .86.761 4.944 4.275 7.733 2.341 1.863 6.138 2.976 10.157 2.976 10.184 0 13.812-5.746 13.812-11.123 0-8.075-6.445-9.941-10.296-11.056M72.918 13.687c0-1.54-1.558-2.692-2.951-2.692-1.19 0-1.893.71-2.274 1.31L59.365 25.65c-.653 1.061-.926 1.552-1.303 2.346-.766-1.5-1.884-3.377-2.165-3.797L48.402 12.31c-.524-.873-1.342-1.315-2.433-1.315-1.185 0-2.899.94-2.899 2.64 0 .656.221 1.144.47 1.591L55.069 33.55l.001 12.645c.047.65.125 1.736 1.41 2.377.44.19.901.29 1.333.29 2.061 0 2.796-1.392 2.796-2.693V33.551l11.782-18.317c.365-.546.527-1.024.527-1.547M91.48 26.888l-4.71-1.397c-1.114-.313-3.72-1.046-4.681-1.848-.272-.217-1.157-1.058-1.157-2.767 0-2.3 1.263-3.521 2.019-4.047 1.132-.802 2.776-1.226 4.754-1.226 5.49 0 6.99 3 7.639 4.298.062.123.149.308.247.513.324.68.546 1.139.656 1.285.61.918 1.332 1.042 1.957 1.042 1.738 0 2.95-1.13 2.95-2.744 0-1.588-1.498-4.601-3.645-6.381-2.293-1.938-5.433-2.88-9.597-2.88-8 0-12.778 4.004-12.778 10.709 0 3.767 1.694 6.604 4.766 7.987.96.437 2.328.916 4.19 1.467l3.894 1.09c2.782.825 4.978 1.475 6.373 2.67a4.777 4.777 0 0 1 1.776 3.75 5.35 5.35 0 0 1-2.08 4.21c-1.883 1.426-4.698 1.426-5.623 1.426-1.688 0-4.166-.17-6.202-1.638-1.984-1.432-2.44-3.127-2.88-4.766l-.085-.314c-.177-.617-.505-1.764-2.42-1.764-1.146 0-3.312.584-3.312 2.795 0 .86.761 4.944 4.275 7.733 2.341 1.863 6.139 2.976 10.157 2.976 10.184 0 13.813-5.746 13.813-11.123 0-8.075-6.445-9.941-10.296-11.056M129.743 11.551c-.331-.165-.723-.246-1.198-.246h-23.12c-1.201 0-2.484.667-2.484 2.537 0 2.402 1.902 2.589 2.485 2.589h8.79v29.685c0 .825.272 2.744 2.796 2.744 2.65 0 2.797-2.046 2.845-2.718V16.431h8.688c1.202 0 2.484-.667 2.484-2.537 0-1.511-.974-2.17-1.286-2.343M158.045 43.424h-18.1V31.999h16.342c1.201 0 2.485-.653 2.485-2.485 0-1.612-.906-2.537-2.485-2.537h-16.342V16.534h17.22c1.67 0 2.588-.919 2.588-2.588 0-1.654-.967-2.641-2.588-2.641h-20.067c-2.308 0-2.705 1.481-2.796 2.796V45.77c.033.76.122 2.779 2.796 2.779h20.947c.583 0 2.484-.186 2.484-2.588 0-1.612-.905-2.537-2.484-2.537M180.55 23.734a4769.633 4769.633 0 0 0-7.314-11.633c-.233-.362-.603-.653-1.069-.84-.696-.28-1.48-.318-2.155-.318-2.164 0-2.806.64-3.064.895-.633.698-.714 1.41-.714 1.952v32.481l-.002.157c-.009.503-.022 1.262.524 1.818.4.407 1.03.614 1.871.614 1.045 0 1.771-.366 2.155-1.087.306-.57.305-1.203.305-1.6.008-.966.178-21.505-.015-27.532 2.624 4.232 10.785 16.966 10.877 17.065.594.638 1.418.72 2.073.72 1.176 0 2.043-.5 2.723-1.575l.337-.517-6.532-10.6z" fill="#FFF"/><path d="M207.51 44.494l-.157-.096c-.33-.165-.723-.245-1.198-.245h-4.124V13.79c0-1.222-.387-2.847-3.728-2.847-.992 0-2.025.063-2.807.806-.339.324-4.335 6.525-7.895 12.299l3.15 5.112c3.502-5.563 6.44-10.202 6.44-10.202l.001 25.195h-4.68c-1.2 0-2.484.667-2.484 2.537 0 2.402 1.901 2.588 2.484 2.588h13.643c1.202 0 2.485-.666 2.485-2.537 0-1.51-.83-2.081-1.13-2.247" fill="#49A4DB"/></g></svg>